<?xml version="1.0" encoding="UTF-8"?>
<svg id="Layer_1" data-name="Layer 1" xmlns="http://www.w3.org/2000/svg" xmlns:xlink="http://www.w3.org/1999/xlink" viewBox="0 0 612 612">
  <defs>
    <style>
      .cls-1 {
        fill: #03ddd7;
      }

      .cls-2 {
        clip-path: url(#clippath);
      }

      .cls-3 {
        fill: none;
      }

      .cls-4 {
        fill: #214559;
      }
    </style>
    <clipPath id="clippath">
      <rect class="cls-3" x="0" width="612" height="612"/>
    </clipPath>
  </defs>
  <g class="cls-2">
    <g>
      <path class="cls-4" d="M219.1,365.71c-9.58,0-16.68-2.2-21.3-6.62-4.63-4.41-6.94-11.62-6.94-21.62v-91.18h23.88v87.31c0,6.99,3.55,10.49,10.65,10.49l153.14,1.13c6.56,0,11.51-.89,14.85-2.66,3.33-1.77,5-4.92,5-9.44v-4.36c0-3.55-1.05-6.27-3.15-8.15-2.1-1.88-5.08-2.82-8.96-2.82h-10.17c-11.84,0-20.68-2.58-26.55-7.75-5.87-5.16-8.8-13.61-8.8-25.34v-5.81c0-22.38,12.86-33.57,38.57-33.57,6.02,0,12.27,.4,18.72,1.21,6.45,.81,12.27,1.75,17.43,2.82v18.88c-14.74-.97-25.88-1.45-33.41-1.45-6.13,0-10.76,.94-13.88,2.82-3.12,1.88-4.68,5.35-4.68,10.41v3.23c0,4.09,1.15,7.08,3.47,8.96,2.31,1.88,5.83,2.82,10.57,2.82h11.78c10.33,0,18.21,2.82,23.64,8.47,5.43,5.65,8.15,13.05,8.15,22.19v6.78c0,9.04-1.67,16.06-5,21.06-3.34,5-8.02,8.45-14.04,10.33-6.03,1.88-13.5,2.82-22.43,2.82l-160.57-.97Z"/>
      <path class="cls-1" d="M244.14,309.56c-8.07-5.65-12.1-15.9-12.1-30.74v-32.52h23.88v32.36c0,6.35,1.91,10.92,5.73,13.72,3.82,2.8,9.49,4.2,17.03,4.2s13.18-1.4,16.94-4.2c3.76-2.8,5.65-7.37,5.65-13.72v-32.36h24.05v32.52c0,14.85-4.06,25.09-12.18,30.74-8.12,5.65-19.61,8.47-34.45,8.47s-26.47-2.82-34.54-8.47Z"/>
    </g>
  </g>
</svg>